<svg width="25" height="24" xmlns="http://www.w3.org/2000/svg" xmlns:svg="http://www.w3.org/2000/svg">
            <g class="layer">
             <title>LindedIn</title>
             <g id="LinkedIn">
              <path clip-rule="evenodd" d="m5.55,3.3c-1.14,0 -2.07,0.93 -2.07,2.07c0,1.14 0.93,2.06 2.07,2.06c1.14,0 2.06,-0.92 2.06,-2.06c0,-1.14 -0.92,-2.07 -2.06,-2.07zm-1.78,5.7l0,11.45l3.56,0l0,-11.45l-3.56,0zm5.79,0l0,11.45l3.56,0l0,-5.67c0,-1.45 0.25,-2.94 2.13,-2.94c1.85,0 1.85,1.76 1.85,3.04l0,5.57l3.56,0l0,-6.28c0,-2.84 -0.51,-5.46 -4.27,-5.46c-1.76,0 -2.91,1 -3.37,1.85l-0.05,0l0,-1.56l-3.41,0zm12.88,15l-20.46,0c-0.97,0 -1.77,-0.78 -1.77,-1.73l0,-20.54c0,-0.95 0.8,-1.73 1.77,-1.73l20.46,0c0.98,0 1.77,0.78 1.77,1.73l0,20.54c0,0.95 -0.79,1.73 -1.77,1.73z" fill="#4EE1A0" fill-rule="evenodd" id="Shape"/>
             </g>
            </g>
           </svg>