<svg width="26" height="23" xmlns="http://www.w3.org/2000/svg" xmlns:svg="http://www.w3.org/2000/svg">
            <g class="layer">
             <title>Frontend Mentor</title>
             <g id="simple-icons_frontendmentor">
              <path clip-rule="evenodd" d="m13.08,0.23c-0.19,0 -0.38,0.09 -0.52,0.23c-0.14,0.14 -0.21,0.32 -0.21,0.52l0,14.27c0,0.2 0.08,0.39 0.22,0.53c0.14,0.14 0.33,0.22 0.53,0.22c0.2,0 0.39,-0.08 0.53,-0.22c0.14,-0.14 0.22,-0.33 0.22,-0.53l0,-14.27c0,-0.1 -0.02,-0.2 -0.06,-0.29c-0.04,-0.09 -0.09,-0.17 -0.17,-0.24c-0.07,-0.07 -0.15,-0.13 -0.24,-0.17c-0.1,-0.03 -0.2,-0.05 -0.29,-0.05l-0.01,0zm11.36,4.27c-0.1,0.01 -0.19,0.03 -0.28,0.07l-6.44,2.87c-0.14,0.06 -0.25,0.16 -0.33,0.28c-0.08,0.12 -0.12,0.26 -0.12,0.41c0,0.14 0.04,0.28 0.12,0.41c0.08,0.12 0.19,0.21 0.33,0.27l6.44,2.89c0.09,0.04 0.2,0.06 0.3,0.06c0.18,0 0.34,-0.06 0.47,-0.16c0.14,-0.11 0.23,-0.26 0.27,-0.43c0.03,-0.17 0.01,-0.34 -0.07,-0.5c-0.08,-0.15 -0.21,-0.27 -0.36,-0.34l-4.91,-2.2l4.91,-2.19c0.18,-0.08 0.32,-0.23 0.39,-0.42c0.07,-0.18 0.07,-0.39 -0.01,-0.57c-0.06,-0.14 -0.16,-0.25 -0.29,-0.33c-0.12,-0.08 -0.27,-0.12 -0.42,-0.12zm-23.4,5.24c0.1,-0.05 0.22,-0.08 0.33,-0.08l0,0c0.16,0.01 0.32,0.06 0.45,0.17c0.13,0.1 0.22,0.24 0.26,0.4c0.79,3 2.55,5.67 5.01,7.57c2.46,1.9 5.49,2.93 8.6,2.93c0.19,0 0.39,0.08 0.53,0.22c0.14,0.14 0.22,0.33 0.22,0.53c0,0.2 -0.08,0.39 -0.22,0.53c-0.14,0.14 -0.34,0.22 -0.53,0.22c-7.09,0 -13.28,-4.78 -15.06,-11.63c-0.03,-0.11 -0.03,-0.23 -0.01,-0.34c0.03,-0.11 0.08,-0.22 0.15,-0.31c0.07,-0.09 0.16,-0.17 0.27,-0.21z" fill="#4EE1A0" fill-rule="evenodd" id="Shape"/>
             </g>
            </g>
           </svg>