<svg width="25" height="24" xmlns="http://www.w3.org/2000/svg" xmlns:svg="http://www.w3.org/2000/svg">
          <g class="layer">
           <title>Github</title>
           <g id="akar-icons_github-fill">
            <path clip-rule="evenodd" d="m12.3,0c-6.79,0 -12.3,5.51 -12.3,12.3c0,5.45 3.52,10.05 8.41,11.68c0.62,0.1 0.85,-0.27 0.85,-0.59c0,-0.29 -0.02,-1.26 -0.02,-2.29c-3.09,0.57 -3.89,-0.75 -4.13,-1.45c-0.14,-0.35 -0.74,-1.44 -1.27,-1.73c-0.43,-0.23 -1.04,-0.8 -0.01,-0.82c0.97,-0.01 1.66,0.89 1.89,1.26c1.11,1.86 2.88,1.34 3.58,1.02c0.11,-0.8 0.44,-1.34 0.79,-1.65c-2.74,-0.31 -5.6,-1.37 -5.6,-6.07c0,-1.34 0.48,-2.45 1.26,-3.31c-0.12,-0.31 -0.55,-1.57 0.12,-3.26c0,0 1.04,-0.32 3.39,1.26c0.98,-0.28 2.03,-0.41 3.07,-0.41c1.05,0 2.1,0.13 3.08,0.41c2.35,-1.6 3.38,-1.26 3.38,-1.26c0.68,1.69 0.25,2.95 0.13,3.26c0.78,0.86 1.26,1.95 1.26,3.31c0,4.72 -2.88,5.76 -5.62,6.07c0.45,0.39 0.83,1.13 0.83,2.28c0,1.64 -0.01,2.97 -0.01,3.38c0,0.32 0.23,0.71 0.85,0.59c2.44,-0.83 4.56,-2.4 6.06,-4.49c1.51,-2.1 2.32,-4.61 2.32,-7.19c0,-6.79 -5.51,-12.3 -12.31,-12.3z" fill="#4EE1A0" fill-rule="evenodd" id="Path"/>
           </g>
          </g>
         </svg>