<svg width="24" height="20" xmlns="http://www.w3.org/2000/svg" xmlns:svg="http://www.w3.org/2000/svg">
            <g class="layer">
             <title>Twitter</title>
             <g id="akar-icons_twitter-fill">
              <path d="m23.49,2.71c-0.85,0.37 -1.77,0.63 -2.74,0.75c1,-0.6 1.74,-1.54 2.1,-2.65c-0.94,0.56 -1.96,0.95 -3.03,1.16c-0.72,-0.77 -1.68,-1.27 -2.71,-1.45c-1.04,-0.17 -2.11,0.01 -3.04,0.51c-0.92,0.49 -1.66,1.28 -2.09,2.24c-0.44,0.96 -0.54,2.04 -0.3,3.06c-1.9,-0.1 -3.76,-0.59 -5.46,-1.45c-1.69,-0.86 -3.19,-2.07 -4.39,-3.54c-0.41,0.71 -0.64,1.53 -0.64,2.4c0,0.79 0.19,1.56 0.56,2.25c0.37,0.7 0.91,1.29 1.56,1.73c-0.76,-0.03 -1.5,-0.23 -2.16,-0.6l0,0.06c0,1.1 0.38,2.17 1.08,3.03c0.7,0.85 1.67,1.43 2.75,1.65c-0.7,0.19 -1.44,0.22 -2.16,0.09c0.31,0.94 0.9,1.77 1.7,2.37c0.8,0.59 1.77,0.92 2.76,0.94c-1.69,1.33 -3.78,2.05 -5.93,2.05c-0.38,0 -0.76,-0.03 -1.14,-0.07c2.19,1.4 4.73,2.15 7.32,2.15c8.79,0 13.59,-7.28 13.59,-13.59c0,-0.21 0,-0.42 -0.01,-0.62c0.93,-0.68 1.74,-1.51 2.38,-2.47l0,0z" fill="#4EE1A0" id="Path"/>
             </g>
            </g>
           </svg>